<svg id="visual" viewBox="0 0 900 300" width="900" height="300" xmlns="http://www.w3.org/2000/svg" xmlns:xlink="http://www.w3.org/1999/xlink" version="1.1"><rect x="0" y="0" width="900" height="300" fill="#00070c"></rect><path d="M0 200L21.5 198.5C43 197 86 194 128.8 196.8C171.7 199.7 214.3 208.3 257.2 209.7C300 211 343 205 385.8 206C428.7 207 471.3 215 514.2 216C557 217 600 211 642.8 202.8C685.7 194.7 728.3 184.3 771.2 187.5C814 190.7 857 207.3 878.5 215.7L900 224L900 301L878.5 301C857 301 814 301 771.2 301C728.3 301 685.7 301 642.8 301C600 301 557 301 514.2 301C471.3 301 428.7 301 385.8 301C343 301 300 301 257.2 301C214.3 301 171.7 301 128.8 301C86 301 43 301 21.5 301L0 301Z" fill="#69edfa"></path><path d="M0 214L21.5 211.8C43 209.7 86 205.3 128.8 207.5C171.7 209.7 214.3 218.3 257.2 223.8C300 229.3 343 231.7 385.8 231.3C428.7 231 471.3 228 514.2 224.7C557 221.3 600 217.7 642.8 220.2C685.7 222.7 728.3 231.3 771.2 233.3C814 235.3 857 230.7 878.5 228.3L900 226L900 301L878.5 301C857 301 814 301 771.2 301C728.3 301 685.7 301 642.8 301C600 301 557 301 514.2 301C471.3 301 428.7 301 385.8 301C343 301 300 301 257.2 301C214.3 301 171.7 301 128.8 301C86 301 43 301 21.5 301L0 301Z" fill="#00c9ff"></path><path d="M0 223L21.5 226.7C43 230.3 86 237.7 128.8 240C171.7 242.3 214.3 239.7 257.2 241C300 242.3 343 247.7 385.8 250.2C428.7 252.7 471.3 252.3 514.2 250C557 247.7 600 243.3 642.8 239.7C685.7 236 728.3 233 771.2 234C814 235 857 240 878.5 242.5L900 245L900 301L878.5 301C857 301 814 301 771.2 301C728.3 301 685.7 301 642.8 301C600 301 557 301 514.2 301C471.3 301 428.7 301 385.8 301C343 301 300 301 257.2 301C214.3 301 171.7 301 128.8 301C86 301 43 301 21.5 301L0 301Z" fill="#009efa"></path><path d="M0 263L21.5 259.5C43 256 86 249 128.8 248.5C171.7 248 214.3 254 257.2 254C300 254 343 248 385.8 246.2C428.7 244.3 471.3 246.7 514.2 250.5C557 254.3 600 259.7 642.8 258.5C685.7 257.3 728.3 249.7 771.2 249.8C814 250 857 258 878.5 262L900 266L900 301L878.5 301C857 301 814 301 771.2 301C728.3 301 685.7 301 642.8 301C600 301 557 301 514.2 301C471.3 301 428.7 301 385.8 301C343 301 300 301 257.2 301C214.3 301 171.7 301 128.8 301C86 301 43 301 21.5 301L0 301Z" fill="#006fe7"></path><path d="M0 272L21.5 272.8C43 273.7 86 275.3 128.8 277.2C171.7 279 214.3 281 257.2 280.3C300 279.7 343 276.3 385.8 274.8C428.7 273.3 471.3 273.7 514.2 273.5C557 273.3 600 272.7 642.8 272.5C685.7 272.3 728.3 272.7 771.2 273C814 273.3 857 273.7 878.5 273.8L900 274L900 301L878.5 301C857 301 814 301 771.2 301C728.3 301 685.7 301 642.8 301C600 301 557 301 514.2 301C471.3 301 428.7 301 385.8 301C343 301 300 301 257.2 301C214.3 301 171.7 301 128.8 301C86 301 43 301 21.5 301L0 301Z" fill="#2438c7"></path></svg>