<svg id="visual" viewBox="0 0 900 300" width="900" height="300" xmlns="http://www.w3.org/2000/svg" xmlns:xlink="http://www.w3.org/1999/xlink" version="1.1"><rect x="0" y="0" width="900" height="300" fill="#00070c"></rect><path d="M0 46L21.5 56.8C43 67.7 86 89.3 128.8 90.7C171.7 92 214.3 73 257.2 70.7C300 68.3 343 82.7 385.8 96.2C428.7 109.7 471.3 122.3 514.2 119.7C557 117 600 99 642.8 90.3C685.7 81.7 728.3 82.3 771.2 87.7C814 93 857 103 878.5 108L900 113L900 301L878.5 301C857 301 814 301 771.2 301C728.3 301 685.7 301 642.8 301C600 301 557 301 514.2 301C471.3 301 428.7 301 385.8 301C343 301 300 301 257.2 301C214.3 301 171.7 301 128.8 301C86 301 43 301 21.5 301L0 301Z" fill="#2438c7"></path><path d="M0 122L21.5 127.5C43 133 86 144 128.8 146.3C171.7 148.7 214.3 142.3 257.2 134.5C300 126.7 343 117.3 385.8 112.2C428.7 107 471.3 106 514.2 112.8C557 119.7 600 134.3 642.8 137.2C685.7 140 728.3 131 771.2 123.8C814 116.7 857 111.3 878.5 108.7L900 106L900 301L878.5 301C857 301 814 301 771.2 301C728.3 301 685.7 301 642.8 301C600 301 557 301 514.2 301C471.3 301 428.7 301 385.8 301C343 301 300 301 257.2 301C214.3 301 171.7 301 128.8 301C86 301 43 301 21.5 301L0 301Z" fill="#0059db"></path><path d="M0 163L21.5 156.8C43 150.7 86 138.3 128.8 136.2C171.7 134 214.3 142 257.2 144.2C300 146.3 343 142.7 385.8 142.7C428.7 142.7 471.3 146.3 514.2 141.7C557 137 600 124 642.8 122.3C685.7 120.7 728.3 130.3 771.2 133.7C814 137 857 134 878.5 132.5L900 131L900 301L878.5 301C857 301 814 301 771.2 301C728.3 301 685.7 301 642.8 301C600 301 557 301 514.2 301C471.3 301 428.7 301 385.8 301C343 301 300 301 257.2 301C214.3 301 171.7 301 128.8 301C86 301 43 301 21.5 301L0 301Z" fill="#0076eb"></path><path d="M0 175L21.5 171.3C43 167.7 86 160.3 128.8 157.2C171.7 154 214.3 155 257.2 158C300 161 343 166 385.8 172.2C428.7 178.3 471.3 185.7 514.2 179.7C557 173.7 600 154.3 642.8 154.5C685.7 154.7 728.3 174.3 771.2 183.7C814 193 857 192 878.5 191.5L900 191L900 301L878.5 301C857 301 814 301 771.2 301C728.3 301 685.7 301 642.8 301C600 301 557 301 514.2 301C471.3 301 428.7 301 385.8 301C343 301 300 301 257.2 301C214.3 301 171.7 301 128.8 301C86 301 43 301 21.5 301L0 301Z" fill="#0091f6"></path><path d="M0 204L21.5 197C43 190 86 176 128.8 176.7C171.7 177.3 214.3 192.7 257.2 193C300 193.3 343 178.7 385.8 175C428.7 171.3 471.3 178.7 514.2 178.3C557 178 600 170 642.8 170.5C685.7 171 728.3 180 771.2 186.3C814 192.7 857 196.3 878.5 198.2L900 200L900 301L878.5 301C857 301 814 301 771.2 301C728.3 301 685.7 301 642.8 301C600 301 557 301 514.2 301C471.3 301 428.7 301 385.8 301C343 301 300 301 257.2 301C214.3 301 171.7 301 128.8 301C86 301 43 301 21.5 301L0 301Z" fill="#00abfe"></path><path d="M0 191L21.5 191.5C43 192 86 193 128.8 196.7C171.7 200.3 214.3 206.7 257.2 212.5C300 218.3 343 223.7 385.8 223.5C428.7 223.3 471.3 217.7 514.2 218.2C557 218.7 600 225.3 642.8 225.7C685.7 226 728.3 220 771.2 221.2C814 222.3 857 230.7 878.5 234.8L900 239L900 301L878.5 301C857 301 814 301 771.2 301C728.3 301 685.7 301 642.8 301C600 301 557 301 514.2 301C471.3 301 428.7 301 385.8 301C343 301 300 301 257.2 301C214.3 301 171.7 301 128.8 301C86 301 43 301 21.5 301L0 301Z" fill="#00c3ff"></path><path d="M0 238L21.5 239.8C43 241.7 86 245.3 128.8 245.5C171.7 245.7 214.3 242.3 257.2 241.8C300 241.3 343 243.7 385.8 244.3C428.7 245 471.3 244 514.2 242.8C557 241.7 600 240.3 642.8 242.7C685.7 245 728.3 251 771.2 249.5C814 248 857 239 878.5 234.5L900 230L900 301L878.5 301C857 301 814 301 771.2 301C728.3 301 685.7 301 642.8 301C600 301 557 301 514.2 301C471.3 301 428.7 301 385.8 301C343 301 300 301 257.2 301C214.3 301 171.7 301 128.8 301C86 301 43 301 21.5 301L0 301Z" fill="#29d9fe"></path><path d="M0 251L21.5 254.5C43 258 86 265 128.8 265.2C171.7 265.3 214.3 258.7 257.2 258.8C300 259 343 266 385.8 267.7C428.7 269.3 471.3 265.7 514.2 262C557 258.3 600 254.7 642.8 253.3C685.7 252 728.3 253 771.2 254.5C814 256 857 258 878.5 259L900 260L900 301L878.5 301C857 301 814 301 771.2 301C728.3 301 685.7 301 642.8 301C600 301 557 301 514.2 301C471.3 301 428.7 301 385.8 301C343 301 300 301 257.2 301C214.3 301 171.7 301 128.8 301C86 301 43 301 21.5 301L0 301Z" fill="#69edfa"></path></svg>