<svg id="visual" viewBox="0 0 900 600" width="900" height="600" xmlns="http://www.w3.org/2000/svg" xmlns:xlink="http://www.w3.org/1999/xlink" version="1.1"><rect x="0" y="0" width="900" height="600" fill="#061652"></rect><path d="M0 312L18.8 305.5C37.7 299 75.3 286 112.8 293C150.3 300 187.7 327 225.2 325C262.7 323 300.3 292 337.8 275.3C375.3 258.7 412.7 256.3 450.2 269.7C487.7 283 525.3 312 562.8 328.5C600.3 345 637.7 349 675.2 348.3C712.7 347.7 750.3 342.3 787.8 340.7C825.3 339 862.7 341 881.3 342L900 343L900 601L881.3 601C862.7 601 825.3 601 787.8 601C750.3 601 712.7 601 675.2 601C637.7 601 600.3 601 562.8 601C525.3 601 487.7 601 450.2 601C412.7 601 375.3 601 337.8 601C300.3 601 262.7 601 225.2 601C187.7 601 150.3 601 112.8 601C75.3 601 37.7 601 18.8 601L0 601Z" fill="#0066ff"></path><path d="M0 331L18.8 341.3C37.7 351.7 75.3 372.3 112.8 370.7C150.3 369 187.7 345 225.2 344.7C262.7 344.3 300.3 367.7 337.8 381C375.3 394.3 412.7 397.7 450.2 386.8C487.7 376 525.3 351 562.8 343.2C600.3 335.3 637.7 344.7 675.2 349C712.7 353.3 750.3 352.7 787.8 357C825.3 361.3 862.7 370.7 881.3 375.3L900 380L900 601L881.3 601C862.7 601 825.3 601 787.8 601C750.3 601 712.7 601 675.2 601C637.7 601 600.3 601 562.8 601C525.3 601 487.7 601 450.2 601C412.7 601 375.3 601 337.8 601C300.3 601 262.7 601 225.2 601C187.7 601 150.3 601 112.8 601C75.3 601 37.7 601 18.8 601L0 601Z" fill="#005ddc"></path><path d="M0 447L18.8 443.3C37.7 439.7 75.3 432.3 112.8 427.8C150.3 423.3 187.7 421.7 225.2 424.2C262.7 426.7 300.3 433.3 337.8 435C375.3 436.7 412.7 433.3 450.2 433.7C487.7 434 525.3 438 562.8 432.7C600.3 427.3 637.7 412.7 675.2 403.3C712.7 394 750.3 390 787.8 389.5C825.3 389 862.7 392 881.3 393.5L900 395L900 601L881.3 601C862.7 601 825.3 601 787.8 601C750.3 601 712.7 601 675.2 601C637.7 601 600.3 601 562.8 601C525.3 601 487.7 601 450.2 601C412.7 601 375.3 601 337.8 601C300.3 601 262.7 601 225.2 601C187.7 601 150.3 601 112.8 601C75.3 601 37.7 601 18.8 601L0 601Z" fill="#0053ba"></path><path d="M0 405L18.8 414.5C37.7 424 75.3 443 112.8 448.3C150.3 453.7 187.7 445.3 225.2 450.2C262.7 455 300.3 473 337.8 467.8C375.3 462.7 412.7 434.3 450.2 422.3C487.7 410.3 525.3 414.7 562.8 425.3C600.3 436 637.7 453 675.2 452.5C712.7 452 750.3 434 787.8 426.8C825.3 419.7 862.7 423.3 881.3 425.2L900 427L900 601L881.3 601C862.7 601 825.3 601 787.8 601C750.3 601 712.7 601 675.2 601C637.7 601 600.3 601 562.8 601C525.3 601 487.7 601 450.2 601C412.7 601 375.3 601 337.8 601C300.3 601 262.7 601 225.2 601C187.7 601 150.3 601 112.8 601C75.3 601 37.7 601 18.8 601L0 601Z" fill="#044998"></path><path d="M0 501L18.8 503.8C37.7 506.7 75.3 512.3 112.8 516.3C150.3 520.3 187.7 522.7 225.2 512.5C262.7 502.3 300.3 479.7 337.8 471.3C375.3 463 412.7 469 450.2 474.5C487.7 480 525.3 485 562.8 491.5C600.3 498 637.7 506 675.2 509.5C712.7 513 750.3 512 787.8 503.2C825.3 494.3 862.7 477.7 881.3 469.3L900 461L900 601L881.3 601C862.7 601 825.3 601 787.8 601C750.3 601 712.7 601 675.2 601C637.7 601 600.3 601 562.8 601C525.3 601 487.7 601 450.2 601C412.7 601 375.3 601 337.8 601C300.3 601 262.7 601 225.2 601C187.7 601 150.3 601 112.8 601C75.3 601 37.7 601 18.8 601L0 601Z" fill="#123e77"></path><path d="M0 536L18.8 536C37.7 536 75.3 536 112.8 533.5C150.3 531 187.7 526 225.2 528.5C262.7 531 300.3 541 337.8 542C375.3 543 412.7 535 450.2 528.7C487.7 522.3 525.3 517.7 562.8 516.5C600.3 515.3 637.7 517.7 675.2 519C712.7 520.3 750.3 520.7 787.8 527.2C825.3 533.7 862.7 546.3 881.3 552.7L900 559L900 601L881.3 601C862.7 601 825.3 601 787.8 601C750.3 601 712.7 601 675.2 601C637.7 601 600.3 601 562.8 601C525.3 601 487.7 601 450.2 601C412.7 601 375.3 601 337.8 601C300.3 601 262.7 601 225.2 601C187.7 601 150.3 601 112.8 601C75.3 601 37.7 601 18.8 601L0 601Z" fill="#1a3256"></path></svg>